<svg
   version="1.1"
   width="595.27557pt"
   height="841.88977pt"
   id="svg11"
   viewBox="0 0 595.27557 841.88977"
   sodipodi:docname="bike-seeklogo.cdr"
   xmlns:inkscape="http://www.inkscape.org/namespaces/inkscape"
   xmlns:sodipodi="http://sodipodi.sourceforge.net/DTD/sodipodi-0.dtd"
   xmlns="http://www.w3.org/2000/svg"
   xmlns:svg="http://www.w3.org/2000/svg">
  <defs
     id="defs15" />
  <sodipodi:namedview
     id="namedview13"
     pagecolor="#ffffff"
     bordercolor="#000000"
     borderopacity="0.25"
     inkscape:showpageshadow="2"
     inkscape:pageopacity="0.0"
     inkscape:pagecheckerboard="0"
     inkscape:deskcolor="#d1d1d1"
     inkscape:document-units="pt" />
  <g
     id="Layer1000">
    <path
       d="m 489.9233,423.5034 c -79.1971,20.9109 -120.5651,20.3686 -123.5964,-1.6945 -1.1988,-8.7357 4.9192,-13.4519 12.1343,-21.1912 15.5988,-16.7313 3.1732,-31.964 -30.7593,-36.7303 -67.296,-9.4519 -124.7656,10.3712 -162.2546,63.5735 -21.3097,30.2413 -1.8791,57.2584 47.9722,74.5915 31.5101,8.0054 64.6592,9.5692 99.6086,8.7587 17.9853,-0.4156 14.9286,7.659 -3.1029,26.5584 -44.4867,46.6231 -56.7827,82.8284 -45.7145,103.9768 10.4866,20.037 16.2625,17.3159 23.988,-8.1945 8.7547,-28.9031 39.8795,-65.1745 89.1673,-110.1926 18.7167,-20.7171 1.3355,-33.1523 -50.5093,-45.2078 -14.8557,-3.4549 -43.2929,-10.7714 -86.631,-20.342 -19.9231,-4.3996 -13.9204,-15.8233 16.3671,-28.2536 8.6532,-3.5856 18.1219,-5.613 28.2952,-6.9667 13.3671,-1.7782 18.1444,1.5654 14.4559,10.9211 -4.7517,17.189 16.2785,31.5455 63.9125,37.1561 45.9957,5.4172 83.1523,-7.7212 110.8992,-33.4831 15.7082,-13.6551 14.2988,-18.083 -4.2323,-13.2798 z"
       style="fill:#1b1918;fill-rule:evenodd"
       id="path2" />
    <path
       d="m 430.3141,401.3226 a 31.9278,37.9556 89.3598 0 1 -38.31,-31.5016 31.9278,37.9556 89.3598 1 1 38.31,31.5016 z"
       style="fill:#1b1918;fill-rule:evenodd"
       id="path4" />
    <path
       d="M 123.6493,525.2205 C 36.8916,577.2384 6.3354,646.295 42.382,692.6271 c 34.642,37.3724 111.3651,23.4036 162.5363,-42.5228 47.6828,-61.4313 34.087,-110.2975 -19.7519,-132.2307 -22.5765,-8.4748 -52.2335,-6.2215 -90.3002,-1.6956 -21.2483,2.5256 -19.1865,-6.7296 8.3264,-12.0077 62.4598,-11.9837 113.3667,-6.5687 140.3838,21.3317 45.047,46.5242 34.6817,106.8865 -29.0639,157.9422 -59.6526,47.7765 -130.0046,52.8779 -174.2474,38.5657 -46.3397,-14.9903 -64.7179,-73.4594 -12.5578,-146.4971 23.5117,-33.3364 53.5276,-51.6339 89.7338,-57.0736 12.7341,-1.9119 15.7154,1.0803 6.2082,6.7813 z"
       style="fill:#1b1918;fill-rule:evenodd"
       id="path6" />
    <path
       d="m 464.862,525.2205 c -86.7577,52.0179 -117.3139,121.0745 -81.2673,167.4066 34.642,37.3724 111.3651,23.4036 162.5363,-42.5228 47.6828,-61.4313 34.087,-110.2975 -19.7519,-132.2307 -22.5765,-8.4748 -52.2335,-6.2215 -90.3002,-1.6956 -21.2483,2.5256 -19.1865,-6.7296 8.3264,-12.0077 62.4598,-11.9837 113.3667,-6.5687 140.3838,21.3317 45.047,46.5242 34.6817,106.8865 -29.0639,157.9422 -59.6526,47.7765 -130.0046,52.8779 -174.2474,38.5657 -46.3397,-14.9903 -64.7179,-73.4594 -12.5578,-146.4971 23.5117,-33.3364 53.5276,-51.6339 89.7338,-57.0736 12.7341,-1.9119 15.7154,1.0803 6.2082,6.7813 z"
       style="fill:#1b1918;fill-rule:evenodd"
       id="path8" />
  </g>
</svg>